<?xml version="1.0" standalone="no"?>
<!DOCTYPE svg PUBLIC "-//W3C//DTD SVG 20010904//EN"
 "http://www.w3.org/TR/2001/REC-SVG-20010904/DTD/svg10.dtd">
<svg version="1.0" xmlns="http://www.w3.org/2000/svg"
 width="512.000000pt" height="512.000000pt" viewBox="0 0 512.000000 512.000000"
 preserveAspectRatio="xMidYMid meet">
<metadata>
Created by potrace 1.11, written by Peter Selinger 2001-2013
</metadata>
<g transform="translate(0.000000,512.000000) scale(0.100000,-0.100000)"
fill="#000000" stroke="none">
<path d="M2315 5109 c-600 -62 -1144 -319 -1565 -739 -403 -404 -648 -904
-732 -1495 -17 -118 -17 -512 0 -630 84 -591 329 -1091 732 -1495 404 -403
904 -648 1495 -732 118 -17 512 -17 630 0 591 84 1091 329 1495 732 403 404
648 904 732 1495 17 118 17 512 0 630 -84 591 -329 1091 -732 1495 -394 393
-883 638 -1450 725 -126 19 -477 28 -605 14z m284 -916 c96 -196 256 -444 413
-641 124 -155 394 -426 543 -546 146 -116 389 -278 550 -365 72 -39 136 -74
144 -79 11 -6 -20 -26 -110 -73 -645 -338 -1200 -896 -1527 -1536 -26 -51 -49
-93 -52 -93 -3 0 -21 30 -39 68 -54 111 -193 340 -281 462 -327 457 -768 841
-1259 1099 -90 47 -121 67 -110 73 8 5 73 40 144 79 161 87 404 249 550 365
151 122 421 393 544 548 159 199 316 444 412 639 18 37 36 67 39 67 3 0 21
-30 39 -67z"/>
<path d="M2510 3553 c-212 -316 -599 -704 -943 -948 -38 -26 -65 -51 -60 -55
4 -3 42 -31 83 -60 338 -243 677 -583 910 -912 30 -43 57 -78 60 -78 3 0 30
35 60 78 165 233 444 537 655 713 83 70 269 213 325 250 l23 15 -69 49 c-345
244 -701 600 -932 931 -31 46 -59 83 -62 83 -3 0 -25 -30 -50 -66z"/>
</g>
</svg>
