<svg width="230" height="131" viewBox="0 0 230 131" fill="none" xmlns="http://www.w3.org/2000/svg">
<g clip-path="url(#clip0)">
<path d="M55.0754 116.997L55.0932 115.356H49.1738V108.153H50.3506V114.269H54.0769V108.153H55.2537V114.269H56.163V116.997H55.0754V116.997Z" fill="#1D1D1B"/>
<path d="M62.7964 108.153V109.223H59.0166V111.184H62.4933V112.254H59.0166V114.287H62.8677V115.356H57.8398V108.153H62.7964Z" fill="#1D1D1B"/>
<path d="M70.8719 108.153V115.356H69.6951V112.29H65.8974V115.356H64.7207V108.153H65.8974V111.202H69.6951V108.153H70.8719Z" fill="#1D1D1B"/>
<path d="M78.3418 108.153V109.241H75.9526V115.356H74.7759V109.241H72.3867V108.153H78.3418Z" fill="#1D1D1B"/>
<path d="M82.4444 108.153C84.156 108.153 85.5289 108.688 85.5289 110.525C85.5289 112.361 84.156 112.896 82.4444 112.896H81.0537V115.356H79.877V108.153H82.4444V108.153ZM82.4979 109.223H81.0359V111.808H82.4979C83.4785 111.808 84.3165 111.559 84.3165 110.507C84.3165 109.473 83.4963 109.223 82.4979 109.223Z" fill="#1D1D1B"/>
<path d="M94.746 108.011C96.6359 108.011 98.5615 109.205 98.5615 111.826C98.5615 114.376 96.6359 115.481 94.7281 115.481C94.0149 115.481 93.2839 115.303 92.6956 115V113.823C93.2126 114.215 93.8723 114.394 94.5498 114.394C95.8692 114.394 97.1886 113.841 97.3669 112.272H93.8366V111.22H97.3491C97.1351 109.687 95.8692 109.098 94.5677 109.098C93.9258 109.098 93.1948 109.259 92.6777 109.615V108.474C93.2839 108.189 94.015 108.011 94.746 108.011Z" fill="#1D1D1B"/>
<path d="M103.749 108.011C104.462 108.011 105.175 108.171 105.799 108.492V109.633C105.3 109.277 104.623 109.098 103.945 109.098C102.572 109.098 101.128 109.918 101.128 111.808C101.128 113.574 102.59 114.394 103.963 114.394C104.712 114.394 105.372 114.198 105.853 113.841V115C105.247 115.303 104.534 115.481 103.767 115.481C101.913 115.481 99.9336 114.269 99.9336 111.808C99.9336 109.259 101.859 108.011 103.749 108.011Z" fill="#1D1D1B"/>
<path d="M112.861 108.153V109.241H110.49V115.356H109.313V109.241H106.924V108.153H112.861Z" fill="#1D1D1B"/>
<path d="M119.369 108.153V109.223H115.589V111.184H119.066V112.254H115.589V114.287H119.44V115.356H114.412V108.153H119.369Z" fill="#1D1D1B"/>
<path d="M126.482 108.153V109.241H124.111V115.356H122.934V109.241H120.545V108.153H126.482Z" fill="#1D1D1B"/>
<path d="M132.99 115.357V110.864C132.99 110.614 132.99 110.329 133.008 110.079L129.121 115.339H128.016V108.136H129.192V112.611C129.192 112.878 129.192 113.164 129.175 113.395L133.061 108.136H134.167V115.339H132.99V115.357Z" fill="#1D1D1B"/>
<path d="M140.622 115.357V112.647C139.926 112.878 139.267 112.968 138.643 112.968C137.02 112.95 136.004 112.147 136.004 110.507V108.136H137.181V110.507C137.181 111.488 137.894 111.862 138.946 111.88C139.498 111.88 140.069 111.773 140.64 111.559V108.154H141.816V115.357H140.622V115.357Z" fill="#1D1D1B"/>
<path d="M149.002 108.153V109.223H145.222V111.184H148.698V112.254H145.222V114.287H149.073V115.356H144.045V108.153H149.002Z" fill="#1D1D1B"/>
<path d="M154.206 108.011C154.919 108.011 155.633 108.171 156.257 108.492V109.633C155.757 109.277 155.08 109.098 154.402 109.098C153.029 109.098 151.585 109.918 151.585 111.808C151.585 113.574 153.047 114.394 154.42 114.394C155.169 114.394 155.829 114.198 156.31 113.841V115C155.704 115.303 154.991 115.481 154.224 115.481C152.37 115.481 150.391 114.269 150.391 111.808C150.391 109.259 152.298 108.011 154.206 108.011Z" fill="#1D1D1B"/>
<path d="M158.111 115.356V108.153H159.288V111.167H160.714L162.729 108.153H164.049L161.659 111.666L164.227 115.356H162.907L160.732 112.236H159.288V115.356H158.111Z" fill="#1D1D1B"/>
<path d="M168.596 108.011C171.128 108.011 172.376 109.847 172.376 111.737C172.376 113.645 171.128 115.463 168.596 115.463C166.047 115.463 164.816 113.627 164.816 111.737C164.816 109.847 166.064 108.011 168.596 108.011ZM168.596 109.116C166.849 109.116 166.011 110.364 166.011 111.755C166.011 113.128 166.867 114.394 168.596 114.394C170.344 114.394 171.182 113.146 171.182 111.755C171.199 110.382 170.344 109.116 168.596 109.116Z" fill="#1D1D1B"/>
<path d="M179.15 115.356V110.863C179.15 110.614 179.15 110.328 179.168 110.079L175.281 115.338H174.176V108.135H175.353V112.611C175.353 112.878 175.353 113.163 175.335 113.395L179.222 108.135H180.327V115.338H179.15V115.356ZM178.758 107.101V106.156C178.241 106.495 177.777 106.602 177.242 106.602C176.708 106.602 176.244 106.495 175.727 106.156V107.101C176.173 107.422 176.672 107.547 177.242 107.547C177.813 107.547 178.312 107.422 178.758 107.101Z" fill="#1D1D1B"/>
<path d="M71.6202 123.076C72.3334 123.076 73.0466 123.237 73.6706 123.558V124.699C73.1714 124.342 72.4938 124.164 71.8163 124.164C70.4434 124.164 68.9993 124.984 68.9993 126.874C68.9993 128.639 70.4613 129.459 71.8342 129.459C72.583 129.459 73.2427 129.263 73.7241 128.906V130.065C73.1179 130.368 72.4047 130.547 71.638 130.547C69.7838 130.547 67.8047 129.334 67.8047 126.874C67.8047 124.306 69.7303 123.076 71.6202 123.076Z" fill="#1D1D1B"/>
<path d="M80.7497 123.201V124.289H78.3784V130.404H77.2017V124.289H74.8125V123.201H80.7497Z" fill="#1D1D1B"/>
<path d="M85.315 123.076C87.8468 123.076 89.0948 124.913 89.0948 126.803C89.0948 128.71 87.8468 130.529 85.315 130.529C82.7654 130.529 81.5352 128.692 81.5352 126.803C81.5352 124.913 82.7832 123.076 85.315 123.076ZM85.315 124.182C83.5677 124.182 82.7297 125.43 82.7297 126.82C82.7297 128.193 83.5855 129.459 85.315 129.459C87.0623 129.459 87.9003 128.211 87.9003 126.82C87.9181 125.43 87.0623 124.182 85.315 124.182Z" fill="#1D1D1B"/>
<path d="M98.5077 123.201V130.404H97.331V125.359L95.0488 128.782H94.3535L92.0713 125.359V130.404H90.8945V123.201H91.9465L94.6744 127.32L97.4201 123.201H98.5077Z" fill="#1D1D1B"/>
<path d="M99.9531 130.404L103.002 123.201H104.286L107.317 130.404H106.086L105.445 128.853H101.825L101.183 130.404H99.9531ZM102.235 127.837H105.035L103.769 124.752C103.733 124.645 103.679 124.521 103.644 124.342C103.59 124.521 103.555 124.628 103.501 124.752L102.235 127.837Z" fill="#1D1D1B"/>
<path d="M113.181 123.201V124.289H110.81V130.404H109.633V124.289H107.244V123.201H113.181Z" fill="#1D1D1B"/>
<path d="M117.764 123.076C120.296 123.076 121.544 124.913 121.544 126.803C121.544 128.71 120.296 130.529 117.764 130.529C115.215 130.529 113.985 128.692 113.985 126.803C113.967 124.913 115.215 123.076 117.764 123.076ZM117.764 124.182C116.017 124.182 115.179 125.43 115.179 126.82C115.179 128.193 116.035 129.459 117.764 129.459C119.512 129.459 120.35 128.211 120.35 126.82C120.35 125.43 119.512 124.182 117.764 124.182Z" fill="#1D1D1B"/>
<path d="M129.121 123.201V130.404H127.944V124.289H125.555C125.27 127.48 124.985 130.511 123.041 130.511C122.827 130.511 122.596 130.476 122.328 130.386V129.299C122.471 129.352 122.613 129.37 122.827 129.37C124.093 129.335 124.218 126.072 124.45 123.201H129.121V123.201Z" fill="#1D1D1B"/>
<path d="M134.702 123.076C137.233 123.076 138.481 124.913 138.481 126.803C138.481 128.71 137.233 130.529 134.702 130.529C132.152 130.529 130.922 128.692 130.922 126.803C130.922 124.913 132.17 123.076 134.702 123.076ZM134.702 124.182C132.954 124.182 132.116 125.43 132.116 126.82C132.116 128.193 132.972 129.459 134.702 129.459C136.449 129.459 137.287 128.211 137.287 126.82C137.305 125.43 136.449 124.182 134.702 124.182Z" fill="#1D1D1B"/>
<path d="M140.301 130.404V123.201H145.186V124.289H141.478V130.404H140.301V130.404Z" fill="#1D1D1B"/>
<path d="M151.658 130.404V125.911C151.658 125.662 151.658 125.376 151.676 125.127L147.789 130.386H146.684V123.201H147.86V127.676C147.86 127.944 147.86 128.229 147.843 128.461L151.729 123.201H152.835V130.404H151.658Z" fill="#1D1D1B"/>
<path d="M160.072 130.404V125.911C160.072 125.662 160.072 125.376 160.09 125.127L156.203 130.386H155.098V123.201H156.274V127.676C156.274 127.944 156.274 128.229 156.257 128.461L160.143 123.201H161.249V130.404H160.072Z" fill="#1D1D1B"/>
<path d="M119.754 94.5792V91.3877H110.251V94.5792H119.754Z" fill="#1D1D1B"/>
<path d="M65.773 59.0149H62.5281L52.8288 73.8312L43.1653 59.0862L43.1118 58.9971H39.849L28.135 76.88L28.1172 76.9157V77.7715H32.0575L41.4715 62.9196L50.7784 77.5932V77.8072H54.6296L54.8436 77.7537V77.6289L64.1505 62.9552L73.511 77.718L73.5645 77.8072H77.5226V76.9514L65.8265 59.104L65.773 59.0149Z" fill="#1D1D1B"/>
<path d="M12.6589 66.3068C6.02636 65.7541 4.2969 65.558 4.2969 64.4347C4.2969 63.3293 7.11395 62.7052 12.0349 62.7052C16.0287 62.7052 19.4519 63.4719 22.5186 65.0587L22.6612 65.13L24.569 62.3665L24.4442 62.2595C21.645 59.9238 17.3302 58.6758 11.9636 58.6758C4.68915 58.6758 0.677517 60.744 0.677517 64.4882C0.677517 68.482 4.1721 69.4269 12.5163 70.1223C19.5411 70.7107 21.3597 71.1742 21.3597 72.3331C21.3597 73.4564 18.7744 74.0269 13.693 74.0269C7.66666 74.0269 4.31473 72.5471 2.05039 71.2455L1.90775 71.1564L0 73.9378L0.124808 74.0448C1.14109 74.9719 5.11705 78.0207 13.4612 78.0207C23 78.0207 25.0147 74.8292 25.0147 72.137C24.9791 67.6618 20.3256 66.9486 12.6589 66.3068Z" fill="#1D1D1B"/>
<path d="M123.094 70.1227H134.683V66.3071H123.094V62.8839H140.888V58.9971H119.457V77.7715H141.138V73.8847H123.094V70.1227Z" fill="#1D1D1B"/>
<path d="M226.382 58.9971V73.4924L210.139 59.0506L210.103 58.9971H205.539V77.7715H209.176V63.3296L225.401 77.7358L225.455 77.7715H230.019V58.9971H226.382Z" fill="#1D1D1B"/>
<path d="M98.116 58.9971H94.4609V77.7715H114.376V73.7955H98.116V58.9971Z" fill="#1D1D1B"/>
<path d="M87.2583 58.9971H83.6211V77.7715H87.2583V58.9971Z" fill="#1D1D1B"/>
<path d="M187.549 58.7831V56.0195H183.912V58.7831C176.923 59.318 172.43 63.08 172.43 68.3932C172.43 74.1877 177.761 78.0746 185.695 78.0746C193.807 78.0746 199.031 74.2769 199.031 68.3932C199.049 63.0087 194.645 59.3358 187.549 58.7831ZM187.549 66.1288V62.8482C192.541 63.2583 195.394 65.273 195.394 68.3932C195.394 71.9234 191.775 74.0273 185.695 74.0273C179.668 74.0273 176.067 71.9234 176.067 68.3932C176.067 65.3087 178.991 63.2583 183.912 62.8482V66.1288H187.549Z" fill="#1D1D1B"/>
<path d="M147.627 62.6343H156.524V77.7715H160.161V62.6343H169.058V58.9971H147.627V62.6343Z" fill="#1D1D1B"/>
<path d="M145.898 9.68092V9.55611C145.898 4.26076 141.602 -0.0361328 136.306 -0.0361328H93.6938C88.3985 -0.0361328 84.1016 4.26076 84.1016 9.55611V11.3747C84.1016 16.6701 88.3985 20.967 93.6938 20.967H98.7574C106.602 20.967 112.932 27.1181 113.235 35.0166H93.6938C90.3419 35.0166 87.614 32.2887 87.614 28.9367V28.8119H84.1016V28.9367C84.1016 34.2321 88.3985 38.529 93.6938 38.529H136.288C141.584 38.529 145.881 34.2321 145.881 28.9367V27.1181C145.881 21.8228 141.584 17.5259 136.288 17.5259L131.332 17.4902C123.451 17.4902 117.086 11.3391 116.783 3.47627H136.271C139.622 3.47627 142.35 6.20418 142.35 9.55611V9.68092H145.898V9.68092ZM115.018 10.6615C116.801 14.4414 119.832 17.4724 123.594 19.2553C119.832 21.0383 116.801 24.0693 115.018 27.8135C113.235 24.0693 110.204 21.0383 106.442 19.2553C110.204 17.4724 113.235 14.4236 115.018 10.6615ZM87.6318 9.55611C87.6318 6.20418 90.3597 3.47627 93.7116 3.47627H113.253C112.967 10.9825 106.905 17.098 99.3992 17.4546H93.7116C90.3597 17.4546 87.6318 14.7267 87.6318 11.3747V9.55611ZM142.368 28.9546C142.368 32.3065 139.64 35.0344 136.288 35.0344H116.801C117.086 27.4926 123.184 21.377 130.726 21.0561H136.288C139.64 21.0561 142.368 23.784 142.368 27.136V28.9546Z" fill="#1D1D1B"/>
</g>
<defs>
<clipPath id="clip0">
<rect width="230" height="130.512" fill="white"/>
</clipPath>
</defs>
</svg>
