<svg xmlns="http://www.w3.org/2000/svg" width="77.26mm" height="6.08mm" viewBox="0 0 219 17.23"><defs><style>.cls-1{fill:#a08a79;}</style></defs><g id="Layer_2" data-name="Layer 2"><g id="Layer_1-2" data-name="Layer 1"><path class="cls-1" d="M7.13.09A7.12,7.12,0,0,1,9.7.55a5.94,5.94,0,0,1,2,1.27A5.65,5.65,0,0,1,13,3.73a6.32,6.32,0,0,1,.46,2.42A6.36,6.36,0,0,1,13,8.57a5.75,5.75,0,0,1-1.29,1.91,6.1,6.1,0,0,1-2,1.27,7.12,7.12,0,0,1-2.57.45H4.71v4.85H0V.09ZM6.73,7.9a1.84,1.84,0,0,0,1.34-.53,1.66,1.66,0,0,0,0-2.45A1.87,1.87,0,0,0,6.73,4.4h-2V7.9ZM16.86.09H29.51V4.26H21.57V6.42h7.27v4H21.57v2.43h8.21v4.17H16.86V.09ZM48.4.09v17H44.1L37.91,8.3v8.75H33.2V.09h4.3l6.19,8.75V.09Z"/><path class="cls-1" d="M64.3,12.88a1.46,1.46,0,0,0,1.14.58l.58-.12v3.22a3.61,3.61,0,0,1-1.83.46,3.23,3.23,0,0,1-1.58-.4,3.56,3.56,0,0,1-1.07-.8l-.35-.4c-.11.11-.26.26-.46.44a5.56,5.56,0,0,1-1.38.71,5.88,5.88,0,0,1-2.29.45,5.54,5.54,0,0,1-3.82-1.31,4.17,4.17,0,0,1-1.15-4.78,4.66,4.66,0,0,1,.77-1.3,7.88,7.88,0,0,1,.9-.92,5.3,5.3,0,0,1,.78-.59l.33-.18-.21-.21c-.09-.09-.25-.28-.47-.56s-.42-.57-.6-.85a5.25,5.25,0,0,1-.47-1,3.46,3.46,0,0,1-.21-1.15,3.83,3.83,0,0,1,1.33-2.91A4.62,4.62,0,0,1,57.52,0a4.86,4.86,0,0,1,3.37,1.21A3.69,3.69,0,0,1,62.23,4a3.47,3.47,0,0,1-.67,2,5.46,5.46,0,0,1-1.31,1.43l-.67.49,1.84,2.19A2.57,2.57,0,0,0,62,8.4h3.68a7.44,7.44,0,0,1-.35,2.29,7.18,7.18,0,0,1-.68,1.66l-.35.53Zm-6.91.92a2.32,2.32,0,0,0,1-.21A2.88,2.88,0,0,0,59,13.2l.2-.2-2.17-2.65a2.06,2.06,0,0,0-.34.26,2.86,2.86,0,0,0-.57.67,1.81,1.81,0,0,0-.36,1,1.47,1.47,0,0,0,.42,1.09,1.67,1.67,0,0,0,1.18.4Zm1.27-9.42a1.12,1.12,0,0,0-.31-.83,1.07,1.07,0,0,0-.83-.33,1.11,1.11,0,0,0-.85.33,1.17,1.17,0,0,0-.31.83,1.58,1.58,0,0,0,.29.87,3.74,3.74,0,0,0,.56.71l.31.25a2.48,2.48,0,0,0,1.14-1.83Z"/><path class="cls-1" d="M80.51,8A5.21,5.21,0,0,1,82,8.89a5.18,5.18,0,0,1,1,1.27,3.93,3.93,0,0,1,.47,2,4.65,4.65,0,0,1-.39,1.9A4.52,4.52,0,0,1,82,15.6a5.31,5.31,0,0,1-1.77,1,7,7,0,0,1-2.37.37H69.48V.06h7.8a7.29,7.29,0,0,1,2.34.35,5.08,5.08,0,0,1,1.72,1,4.23,4.23,0,0,1,1.08,1.42A4,4,0,0,1,82.8,4.5a3.18,3.18,0,0,1-.37,1.6,4.71,4.71,0,0,1-.79,1.09A4.46,4.46,0,0,1,80.51,8ZM74.19,6.65h2.15a1.62,1.62,0,0,0,1.16-.43,1.45,1.45,0,0,0,0-2.1,1.68,1.68,0,0,0-1.16-.43H74.19v3Zm2.55,6.73a1.86,1.86,0,0,0,1.35-.53,1.65,1.65,0,0,0,0-2.44,1.86,1.86,0,0,0-1.35-.53H74.19v3.5ZM96.16,17c-.25-.45-.53-1-.85-1.59s-.62-1.2-.93-1.77l-1-2H91.59V17H86.88V.06h7.4A7.34,7.34,0,0,1,96.85.5a5.89,5.89,0,0,1,2,1.24,5.48,5.48,0,0,1,1.29,1.84,5.54,5.54,0,0,1,.46,2.26A4.55,4.55,0,0,1,100.13,8a6.63,6.63,0,0,1-1,1.44,6,6,0,0,1-1.48,1.1L101.41,17ZM94,7.32a1.82,1.82,0,0,0,1.28-.43,1.36,1.36,0,0,0,.47-1,1.39,1.39,0,0,0-.47-1A1.88,1.88,0,0,0,94,4.36H91.59v3Zm17.77-2-1.48,4.84h3l-1.48-4.84Zm-2.55,8.61-1,3.09h-5l5.78-17h5.38l5.79,17h-5l-.94-3.09ZM127,17H122.3V.06H127V17Zm18.48-17V17h-4.3L135,8.27V17h-4.71V.06h4.3l6.19,8.74V.06Z"/><path class="cls-1" d="M153.55,2.44a2.27,2.27,0,0,1-.19.9,2.18,2.18,0,0,1-.49.73,2.42,2.42,0,0,1-2.6.5,2.36,2.36,0,0,1-.74-.5,2.21,2.21,0,0,1-.5-.73,2.26,2.26,0,0,1-.18-.9A2.3,2.3,0,0,1,149.53.8a2.54,2.54,0,0,1,.74-.5,2.47,2.47,0,0,1,1.85,0,2.59,2.59,0,0,1,.75.5,2.22,2.22,0,0,1,.49.74,2.27,2.27,0,0,1,.19.9Zm-1.32-.39a.67.67,0,0,1-.06.3.78.78,0,0,1-.14.2.85.85,0,0,1-.19.14l.62.85a1.85,1.85,0,0,0,.3-.51,1.63,1.63,0,0,0,.11-.59,1.54,1.54,0,0,0-.13-.65,1.66,1.66,0,0,0-.36-.53,1.47,1.47,0,0,0-.53-.36,1.58,1.58,0,0,0-.65-.14,1.63,1.63,0,0,0-.66.14,1.56,1.56,0,0,0-.53.36,1.66,1.66,0,0,0-.36.53,1.71,1.71,0,0,0-.13.65,1.75,1.75,0,0,0,.13.65,1.77,1.77,0,0,0,.36.53,1.91,1.91,0,0,0,.53.36,1.62,1.62,0,0,0,.66.13,1.57,1.57,0,0,0,.65-.13,1.64,1.64,0,0,0,.53-.37h-.69l-.49-.75H151v.75h-.68V1.26h1a.81.81,0,0,1,.35.07,1,1,0,0,1,.27.17.74.74,0,0,1,.17.25.6.6,0,0,1,.07.3Zm-1,.17c.16,0,.25-.06.25-.17s-.09-.18-.25-.18H151v.35Z"/><path class="cls-1" d="M167.3,3.33a2.28,2.28,0,0,1,.6.36,2.16,2.16,0,0,1,.4.51,1.52,1.52,0,0,1,.19.81,1.76,1.76,0,0,1-.16.76,1.79,1.79,0,0,1-.45.62,2.14,2.14,0,0,1-.71.41,2.83,2.83,0,0,1-.95.15h-3.36V.14H166a3,3,0,0,1,.94.14,2,2,0,0,1,.7.38,1.83,1.83,0,0,1,.43.57,1.65,1.65,0,0,1,.15.69,1.3,1.3,0,0,1-.15.65,2.14,2.14,0,0,1-.31.44,1.89,1.89,0,0,1-.46.32Zm-2.54-.54h.86a.68.68,0,0,0,.47-.17.58.58,0,0,0,.18-.43.58.58,0,0,0-.18-.42.68.68,0,0,0-.47-.17h-.86V2.79Zm1,2.7a.76.76,0,0,0,.54-.21.68.68,0,0,0,0-1,.76.76,0,0,0-.54-.21h-1v1.4ZM173.85,7l-.34-.63-.37-.72-.42-.81H172V7h-1.89V.14h3a2.91,2.91,0,0,1,1,.18,2.39,2.39,0,0,1,.8.49,2.16,2.16,0,0,1,.52.75,2.11,2.11,0,0,1,.19.9,1.94,1.94,0,0,1-.19.88,2.61,2.61,0,0,1-.41.57,2.8,2.8,0,0,1-.59.45L176,7ZM173,3.06a.77.77,0,0,0,.51-.17.56.56,0,0,0,.19-.43A.55.55,0,0,0,173.5,2a.77.77,0,0,0-.51-.17h-1V3.06Zm7.14-.81-.59,2h1.19l-.6-1.95Zm-1,3.46L178.73,7h-2L179.05.14h2.16L183.54,7h-2l-.38-1.24ZM191,.14V7h-1.73l-2.49-3.51V7h-1.9V.14h1.74l2.48,3.51V.14Zm4.44,5.08A1.58,1.58,0,0,0,196,5.1a1.46,1.46,0,0,0,.5-.35,1.59,1.59,0,0,0,.33-.53,1.63,1.63,0,0,0,.13-.67,1.68,1.68,0,0,0-.13-.68,1.59,1.59,0,0,0-.33-.53A1.61,1.61,0,0,0,196,2a1.58,1.58,0,0,0-.61-.12h-.6V5.22ZM192.91.14h2.49a3.46,3.46,0,0,1,1.38.26,3.31,3.31,0,0,1,1.1.71,3.2,3.2,0,0,1,.72,1.08,3.58,3.58,0,0,1,.26,1.36,3.49,3.49,0,0,1-.26,1.35A3.1,3.1,0,0,1,197.88,6a3.31,3.31,0,0,1-1.1.71A3.46,3.46,0,0,1,195.4,7h-2.49V.14ZM202.44,7h-1.9V.14h1.9V7ZM210.5.14V7h-1.73l-2.49-3.51V7h-1.89V.14h1.73l2.49,3.51V.14Zm5.09,3.14H219V7h-1.24l-.27-.64a2.38,2.38,0,0,1-.51.37,3.18,3.18,0,0,1-.61.27,3,3,0,0,1-.83.11,3.23,3.23,0,0,1-1.31-.27,3.43,3.43,0,0,1-1.06-.74,3.55,3.55,0,0,1-.72-1.11,3.59,3.59,0,0,1-.27-1.39,3.59,3.59,0,0,1,1-2.51,3.61,3.61,0,0,1,1.1-.74A3.45,3.45,0,0,1,215.65,0a3.42,3.42,0,0,1,.88.11,3.37,3.37,0,0,1,.72.27,3.56,3.56,0,0,1,.57.39,4.32,4.32,0,0,1,.42.45,3.63,3.63,0,0,1,.65,1.21l-1.95.17a1,1,0,0,0-.28-.38,1.45,1.45,0,0,0-1-.38A1.63,1.63,0,0,0,215,2a1.57,1.57,0,0,0-.49.35,1.61,1.61,0,0,0-.34.53,1.87,1.87,0,0,0-.12.68,1.81,1.81,0,0,0,.12.67,1.61,1.61,0,0,0,.34.53,1.56,1.56,0,0,0,.5.35,1.75,1.75,0,0,0,1.22,0,1.63,1.63,0,0,0,.4-.22.87.87,0,0,0,.28-.33h-1.35V3.28Z"/><path class="cls-1" d="M166.27,12.41l-.59,1.95h1.19l-.6-1.95Zm-1,3.47-.38,1.24h-2l2.33-6.82h2.16l2.33,6.82h-2l-.38-1.24Zm8.66-2.44h3.4v3.68h-1.24l-.27-.65a2.19,2.19,0,0,1-.51.38,3.18,3.18,0,0,1-.61.27,3,3,0,0,1-.83.11,3.19,3.19,0,0,1-1.3-.27,3.47,3.47,0,0,1-1.07-.74,3.57,3.57,0,0,1-1-2.51,3.77,3.77,0,0,1,.26-1.39,3.27,3.27,0,0,1,.74-1.11,3.33,3.33,0,0,1,1.1-.74A3.37,3.37,0,0,1,174,10.2a3.57,3.57,0,0,1,.89.1,4.69,4.69,0,0,1,.72.28,2.54,2.54,0,0,1,.56.39,6,6,0,0,1,.43.45,3.92,3.92,0,0,1,.65,1.21l-2,.16a1.61,1.61,0,0,0-.28-.38,1.85,1.85,0,0,0-.4-.26A1.6,1.6,0,0,0,174,12a1.54,1.54,0,0,0-.61.12,1.46,1.46,0,0,0-.5.35,1.49,1.49,0,0,0-.33.53,1.63,1.63,0,0,0-.13.67,1.68,1.68,0,0,0,.13.68,1.55,1.55,0,0,0,.34.53,1.69,1.69,0,0,0,.49.35,1.54,1.54,0,0,0,.61.12,1.61,1.61,0,0,0,.62-.1,2.39,2.39,0,0,0,.4-.22,1.23,1.23,0,0,0,.28-.33h-1.35v-1.3Zm5.25-3.14h5.08V12h-3.19v.87H184v1.62h-2.92v1h3.3v1.68h-5.19V10.3Zm13,0v6.82h-1.73L188,13.6v3.52h-1.89V10.3h1.73l2.49,3.52V10.3Zm5.15,5.09a1.25,1.25,0,0,0,.61-.14,1.42,1.42,0,0,0,.4-.29,1.22,1.22,0,0,0,.28-.44l2,.17a2.77,2.77,0,0,1-.38.92,3.44,3.44,0,0,1-.72.81,3.65,3.65,0,0,1-1,.59,3,3,0,0,1-1.17.22A3.45,3.45,0,0,1,196,17a3.61,3.61,0,0,1-1.1-.74,3.67,3.67,0,0,1-.73-3.9,3.4,3.4,0,0,1,.73-1.11,3.45,3.45,0,0,1,2.47-1,3,3,0,0,1,1.17.22,3.62,3.62,0,0,1,1,.58,3.48,3.48,0,0,1,.72.82,2.68,2.68,0,0,1,.38.92l-2,.16a1.18,1.18,0,0,0-.28-.43,1.44,1.44,0,0,0-.4-.3,1.25,1.25,0,0,0-.61-.13,1.63,1.63,0,0,0-.62.12,1.42,1.42,0,0,0-.49.35,1.51,1.51,0,0,0-.34.53,1.81,1.81,0,0,0-.12.67,1.87,1.87,0,0,0,.12.68,1.72,1.72,0,0,0,.34.53,1.57,1.57,0,0,0,.49.35,1.63,1.63,0,0,0,.62.12Zm6.28-.76L201.3,10.3h2.06l1.22,2.49,1.21-2.49h2.06l-2.33,4.33v2.49h-1.89V14.63Z"/></g></g></svg>